<svg xmlns="http://www.w3.org/2000/svg" width="120" height="41" viewBox="0 0 120 41" fill="none">
  <g clip-path="url(#clip0_1_315)">
    <mask id="mask0_1_315" style="mask-type:luminance" maskUnits="userSpaceOnUse" x="0" y="0" width="120" height="40">
      <path d="M0.344849 0.676552H119.653V39.2972H0.344849V0.676552Z" fill="white"/>
    </mask>
    <g mask="url(#mask0_1_315)">
      <path d="M25.0469 31.8628H30.6007V15.5455H25.0469V31.8628ZM32.5159 4.44207H28.7814V8.20759H32.5159V4.44207ZM11.5442 6.27655H6.18211V11.0076H11.1614C14.3214 11.0076 16.1407 12.5524 16.1407 15.449C16.1407 18.3455 14.3214 19.9869 11.1614 19.9869H6.18211V11.1041H0.627625V31.8628H6.18211V24.7179H11.4483C17.8649 24.7179 21.5993 21.2421 21.5993 15.2559C21.5993 9.65586 17.96 6.27655 11.5442 6.27655ZM36.2504 0.676552H25.0469V11.9731H36.2504V0.676552ZM34.4311 10.0421H26.9621V2.51103H34.4311V10.0421ZM66.9897 6.27655H61.9138V11.0076H66.7021C69.8621 11.0076 71.6821 12.5524 71.6821 15.449C71.6821 18.3455 69.8621 19.9869 66.7028 19.9869H61.9145V11.1041H56.36V31.8628H61.9145V24.7179H66.9897C73.4056 24.7179 77.14 21.2421 77.14 15.2559C77.14 9.65586 73.4056 6.27655 66.9897 6.27655ZM113.625 12.2628L108.837 24.4283L104.049 12.2628H98.3035L105.964 31.8628L102.995 39.2972H108.837L119.37 12.2628H113.625ZM88.7269 12.1662C85.3759 12.1662 82.7904 12.9386 79.9173 14.3869L81.6407 18.249C83.6518 17.0903 85.6628 16.511 87.4821 16.511C90.1635 16.511 91.5042 17.6697 91.5042 19.7938V20.18H86.1414C81.3538 20.18 78.7683 22.4007 78.7683 26.0697C78.7683 29.6421 81.258 32.1524 85.4711 32.1524C88.1525 32.1524 90.0676 31.1869 91.6 29.5455V31.6697H97.0587V18.9248C96.8669 14.7731 93.898 12.1662 88.7269 12.1662ZM91.9828 25.2972C91.4083 26.9386 89.7807 28.2903 87.4821 28.2903C85.5669 28.2903 84.418 27.3248 84.418 25.78C84.418 24.2352 85.4711 23.5593 87.578 23.5593H91.9828V25.2972ZM44.7731 27.6145C42.0918 27.6145 40.1766 25.4903 40.1766 22.3041C40.1766 19.2145 42.0918 17.0903 44.7731 17.0903C46.6883 17.0903 48.1249 17.8628 49.178 19.2145L52.9131 16.511C51.189 13.9041 48.2207 12.3593 44.4856 12.3593C38.6442 12.2628 34.6228 16.3179 34.6228 22.3041C34.6228 28.2903 38.6449 32.249 44.4862 32.249C48.5076 32.249 51.4766 30.6076 53.1042 27.9041L49.2738 25.2972C48.3166 26.8421 46.7842 27.6145 44.7731 27.6145Z" fill="#11C76F"/>
    </g>
  </g>
  <defs>
    <clipPath id="clip0_1_315">
      <rect width="120" height="40" fill="white" transform="translate(0 0.5)"/>
    </clipPath>
  </defs>
</svg>